<?xml version="1.0" encoding="utf-8"?>
<!-- Generator: Adobe Illustrator 18.1.0, SVG Export Plug-In . SVG Version: 6.00 Build 0)  -->
<svg width="368" height="240" version="1.0" id="Layer_1" xmlns="http://www.w3.org/2000/svg" xmlns:xlink="http://www.w3.org/1999/xlink" x="0px" y="0px"
	 viewBox="0 0 150 150" enable-background="new 0 0 150 150" xml:space="preserve">
<g>
	<path fill="none" d="M62.5,101.5L62.5,101.5C62.5,101.6,62.5,101.5,62.5,101.5c0.1-0.4,0.3-0.7,0.4-1.1h-0.4V101.5z"/>
	<path fill="none" d="M48.1,100.4h-0.6c0.2,0.1,0.4,0.1,0.6,0.2V100.4z"/>
	<path fill="none" d="M55.5,37.1C36.6,41,19.7,52.8,9.8,69.9C16,80.6,26,89.2,35,95.1v-7.4c0-1,1.4-1.7,2.4-1.7h2.8
		c-0.9-1-1.7-3-2.4-4.6C30.6,64.3,38.5,44.6,55.5,37.1z"/>
	<path fill="none" d="M73.5,57.3c-2.3,0-4.2,1.9-4.2,4.2c0,2.3,1.9,4.2,4.2,4.2c2.3,0,4.2-1.9,4.2-4.2
		C77.7,59.2,75.8,57.3,73.5,57.3z"/>
	<path fill="#1C4176" d="M47.5,100h-8.6c3,1,6.1,3,9.1,4v-3.4C48,100.6,47.7,100,47.5,100z"/>
	<path fill="#1C4176" d="M35,95.1c-9-5.9-19-14.5-25.2-25.3c9.9-17,26.7-28.8,45.5-32.7c0.2-0.1,0.4-0.1,0.5-0.2
		c8.9-3.7,18.5-3.4,26.7,0.1c18.9,3.8,35.6,15.6,45.6,32.6c0.8-0.8,1.6-1.6,2.3-2.4c-12.9-21.5-36.2-34.8-61.2-34.8
		c-25.8,0-49.6,14-62.3,36.6c-0.3,0.5-0.3,1.1,0,1.6c6.8,12.2,16.6,21.8,28.5,28.2c0,0-0.3-0.1-0.3-0.1V95.1z"/>
	<path fill="#1C4176" d="M69.2,51.4c-9.9,0-17.9,8.2-17.9,18.1c0,1.5,0.2,2.5,0.5,4.5h8.9c1,0,1.2,0.3,1.2,1.3v10.6
		c0,0,0.7,0.1,0.8,0.1h6.7c4.6-5,10-7.3,15.8-9.1c1.1-2.3,1.7-4.8,1.7-7.5C87,59.4,79,51.4,69.2,51.4z M73.5,65.7
		c-2.3,0-4.2-1.9-4.2-4.2c0-2.3,1.9-4.2,4.2-4.2c2.3,0,4.2,1.9,4.2,4.2C77.7,63.8,75.8,65.7,73.5,65.7z"/>
	<path fill="#06A8DC" d="M55.9,36.9c-0.2,0.1-0.3,0.1-0.5,0.2c-17,7.4-24.9,27.1-17.7,44.3c0.7,1.6,1.5,3.6,2.4,4.6H48V75.3
		c0-0.9,0.9-1.3,1.8-1.3h2c-0.3-2-0.5-3-0.5-4.5c0-9.9,8-18,17.9-18C79,51.6,87,59.5,87,69.4c0,2.7-0.6,5.2-1.7,7.5
		c4.1-1.3,8.3-2.3,12.5-3.2c1.6-0.4,3.3-0.7,4.9-1.1c0.8-5.8,0.1-11.8-2.4-17.5c-3.5-8.4-10.1-14.7-17.8-18
		C74.4,33.5,64.8,33.2,55.9,36.9z"/>
	<path fill="#06A8DC" d="M62.5,86h0.4c-0.1,0-0.2-0.1-0.4-0.1V86z"/>
	<path fill="#06A8DC" d="M144.5,58.7c-3.6,0-7.6,4.7-13,10.4c-1.5,1.6-3,3.2-4.7,4.8c-0.9,0.9-2,1.8-3.1,2.8
		c-7.2,6.2-17.6,12.6-26.4,12.6c-0.5,0-1,0-1.5-0.1c-1.9-0.2-3.6-0.6-5.3-1.5c0.4-1.7,4.1-2.7,8.7-3.8c8.2-2.1,19-4.9,18.2-13.9
		c-4.8,2.2-9.9,3.6-15,4.7c-6.4,1.5-12.7,2.6-18.6,4.8C79.7,81,75.9,84,72.5,86h0.7c0.4,0,0.8,0.2,1.1,0.4c0.4,0.3,0.7,0.8,0.7,1.3
		v11c0,1-0.8,1.3-1.8,1.3H62.9c-0.1,0-0.5,0.9-0.6,1.3c0,0-0.2,0.2-0.2,0.2v2.1v3.2v3.6c11-4.4,35.6-0.7,48.6-13.3
		c16.9-8,28.9-21,34.7-38.4C145,58.8,144.8,58.7,144.5,58.7z"/>
	<path fill="#A71E22" d="M62,103.7v-2.1v0V100h0.9h10.3c1,0,1.8-0.3,1.8-1.3v-11c0-0.5-0.3-1-0.7-1.3C74,86.2,73.6,86,73.2,86h-0.7
		h-1.6h-1.3h-6.7H62v-0.1V75.3c0-0.9-0.3-1.3-1.2-1.3h-8.9h-2c-1,0-1.8,0.3-1.8,1.3V86h-7.9h-2.8c-1,0-2.4,0.8-2.4,1.7v7.4v3.6
		c0,0,0.3-0.1,0.3-0.1c0.1,0.9,1.1,1.4,2,1.4h1.5h8.6H48v0.6v3.4v7.1c0,1,0.9,1.9,1.8,1.9h7.7h1h2h0.2c0.8,0,1.2-0.6,1.4-1.3
		c0.1-0.2-0.2-0.4-0.2-0.6v-0.6v-3.6V103.7z"/>
</g>
</svg> 