<?xml version="1.0" encoding="iso-8859-1"?>
<!-- Generator: Adobe Illustrator 13.0.0, SVG Export Plug-In . SVG Version: 6.00 Build 14948)  -->
<!DOCTYPE svg PUBLIC "-//W3C//DTD SVG 1.1//EN" "http://www.w3.org/Graphics/SVG/1.1/DTD/svg11.dtd">
<svg width="368" height="240" version="1.1" id="Layer_1" xmlns="http://www.w3.org/2000/svg" xmlns:xlink="http://www.w3.org/1999/xlink" x="0px" y="0px"
	 viewBox="0 0 100 100" enable-background="new 0 0 100 100" xml:space="preserve">
<g>
	<radialGradient id="SVGID_1_" cx="65.543" cy="-10.4248" r="157.5169" gradientUnits="userSpaceOnUse">
		<stop  offset="0" style="stop-color:#FFFFFF"/>
		<stop  offset="0.0174" style="stop-color:#F7DDDE"/>
		<stop  offset="0.043" style="stop-color:#EDB1B4"/>
		<stop  offset="0.0706" style="stop-color:#E48B8E"/>
		<stop  offset="0.0998" style="stop-color:#DC6A6F"/>
		<stop  offset="0.1311" style="stop-color:#D65055"/>
		<stop  offset="0.1653" style="stop-color:#D13B42"/>
		<stop  offset="0.2039" style="stop-color:#CE2D34"/>
		<stop  offset="0.2506" style="stop-color:#CC252B"/>
		<stop  offset="0.3273" style="stop-color:#CB2229"/>
		<stop  offset="0.4858" style="stop-color:#A31D26"/>
		<stop  offset="0.6188" style="stop-color:#881924"/>
		<stop  offset="0.697" style="stop-color:#7E1823"/>
		<stop  offset="0.9818" style="stop-color:#5E0011"/>
	</radialGradient>
	<path fill="url(#SVGID_1_)" d="M54.786,77.194c-14.849,0-26.872-12.022-26.872-26.864c0-14.83,12.023-26.858,26.872-26.858
		c4.411,0,8.586,1.077,12.26,2.966c-4.547-3.138-10.067-4.987-16.013-4.987c-15.589,0-28.217,12.629-28.217,28.211
		c0,15.583,12.628,28.211,28.217,28.211c2.404,0,4.757-0.311,7.003-0.886C56.967,77.121,55.883,77.194,54.786,77.194z"/>
	<radialGradient id="SVGID_2_" cx="57.627" cy="14.4272" r="131.5386" gradientUnits="userSpaceOnUse">
		<stop  offset="0" style="stop-color:#00ABEB"/>
		<stop  offset="0.029" style="stop-color:#22AAE7"/>
		<stop  offset="0.0603" style="stop-color:#3FA8E3"/>
		<stop  offset="0.0914" style="stop-color:#53A8E0"/>
		<stop  offset="0.122" style="stop-color:#60A7DF"/>
		<stop  offset="0.1515" style="stop-color:#64A7DE"/>
		<stop  offset="0.3273" style="stop-color:#4674B7"/>
		<stop  offset="0.5212" style="stop-color:#333B8B"/>
		<stop  offset="0.7576" style="stop-color:#211C51"/>
		<stop  offset="1" style="stop-color:#171043"/>
	</radialGradient>
	<path fill="url(#SVGID_2_)" d="M51.377,84.816c-18.203,0-32.974-14.764-32.974-32.987c0-10.997,5.391-20.734,13.66-26.725
		c-10.897,5.912-18.31,17.458-18.31,30.742c0,19.307,15.656,34.948,34.957,34.948c18.085,0,32.974-13.739,34.771-31.354
		C80.044,73.983,66.979,84.816,51.377,84.816z"/>
	<radialGradient id="SVGID_3_" cx="65.5547" cy="-10.4219" r="157.5144" gradientUnits="userSpaceOnUse">
		<stop  offset="0" style="stop-color:#FFFFFF"/>
		<stop  offset="0.0174" style="stop-color:#F7DDDE"/>
		<stop  offset="0.043" style="stop-color:#EDB1B4"/>
		<stop  offset="0.0706" style="stop-color:#E48B8E"/>
		<stop  offset="0.0998" style="stop-color:#DC6A6F"/>
		<stop  offset="0.1311" style="stop-color:#D65055"/>
		<stop  offset="0.1653" style="stop-color:#D13B42"/>
		<stop  offset="0.2039" style="stop-color:#CE2D34"/>
		<stop  offset="0.2506" style="stop-color:#CC252B"/>
		<stop  offset="0.3273" style="stop-color:#CB2229"/>
		<stop  offset="0.4858" style="stop-color:#A31D26"/>
		<stop  offset="0.6188" style="stop-color:#881924"/>
		<stop  offset="0.697" style="stop-color:#7E1823"/>
		<stop  offset="0.9818" style="stop-color:#5E0011"/>
	</radialGradient>
	<path fill="url(#SVGID_3_)" d="M19.447,9.436c0,0,11.375,0.733,14.572,14.413c0,0,1.756-1.274,5.285-2.999
		C39.304,20.85,33.597,8.571,19.447,9.436z"/>
	<radialGradient id="SVGID_4_" cx="65.5361" cy="-10.4243" r="157.5046" gradientUnits="userSpaceOnUse">
		<stop  offset="0" style="stop-color:#FFFFFF"/>
		<stop  offset="0.0174" style="stop-color:#F7DDDE"/>
		<stop  offset="0.043" style="stop-color:#EDB1B4"/>
		<stop  offset="0.0706" style="stop-color:#E48B8E"/>
		<stop  offset="0.0998" style="stop-color:#DC6A6F"/>
		<stop  offset="0.1311" style="stop-color:#D65055"/>
		<stop  offset="0.1653" style="stop-color:#D13B42"/>
		<stop  offset="0.2039" style="stop-color:#CE2D34"/>
		<stop  offset="0.2506" style="stop-color:#CC252B"/>
		<stop  offset="0.3273" style="stop-color:#CB2229"/>
		<stop  offset="0.4858" style="stop-color:#A31D26"/>
		<stop  offset="0.6188" style="stop-color:#881924"/>
		<stop  offset="0.697" style="stop-color:#7E1823"/>
		<stop  offset="0.9818" style="stop-color:#5E0011"/>
	</radialGradient>
	<path fill="url(#SVGID_4_)" d="M50.083,14.12c-0.266,2.945-2.854,5.133-5.813,4.875c-2.947-0.259-5.125-2.861-4.861-5.8
		c0.251-2.953,2.854-5.133,5.799-4.875C48.153,8.571,50.334,11.174,50.083,14.12z"/>
	<radialGradient id="SVGID_5_" cx="65.541" cy="-10.4185" r="157.5049" gradientUnits="userSpaceOnUse">
		<stop  offset="0" style="stop-color:#FFFFFF"/>
		<stop  offset="0.0174" style="stop-color:#F7DDDE"/>
		<stop  offset="0.043" style="stop-color:#EDB1B4"/>
		<stop  offset="0.0706" style="stop-color:#E48B8E"/>
		<stop  offset="0.0998" style="stop-color:#DC6A6F"/>
		<stop  offset="0.1311" style="stop-color:#D65055"/>
		<stop  offset="0.1653" style="stop-color:#D13B42"/>
		<stop  offset="0.2039" style="stop-color:#CE2D34"/>
		<stop  offset="0.2506" style="stop-color:#CC252B"/>
		<stop  offset="0.3273" style="stop-color:#CB2229"/>
		<stop  offset="0.4858" style="stop-color:#A31D26"/>
		<stop  offset="0.6188" style="stop-color:#881924"/>
		<stop  offset="0.697" style="stop-color:#7E1823"/>
		<stop  offset="0.9818" style="stop-color:#5E0011"/>
	</radialGradient>
	<path fill="url(#SVGID_5_)" d="M44.72,51.222l3.183-7.973c0.159-0.409,0.542-0.667,0.965-0.667c0.027,0,0.104,0.007,0.132,0.007
		c0.45,0.046,0.846,0.396,0.926,0.858l2.959,15.377l2.589-24.929c0.052-0.527,0.489-0.938,1.031-0.95l0,0
		c0.54,0,0.99,0.376,1.069,0.884l3.409,20.874l2.034-4.981c0.157-0.403,0.54-0.66,0.99-0.66h16.646
		c-0.701-13.205-11.625-23.688-24.994-23.688c-13.846,0-25.048,11.203-25.048,25.035c0,0.27,0.013,0.541,0.026,0.812H44.72z"/>
	<radialGradient id="SVGID_6_" cx="57.6299" cy="14.4189" r="131.5559" gradientUnits="userSpaceOnUse">
		<stop  offset="0" style="stop-color:#00ABEB"/>
		<stop  offset="0.029" style="stop-color:#22AAE7"/>
		<stop  offset="0.0603" style="stop-color:#3FA8E3"/>
		<stop  offset="0.0914" style="stop-color:#53A8E0"/>
		<stop  offset="0.122" style="stop-color:#60A7DF"/>
		<stop  offset="0.1515" style="stop-color:#64A7DE"/>
		<stop  offset="0.3273" style="stop-color:#4674B7"/>
		<stop  offset="0.5212" style="stop-color:#333B8B"/>
		<stop  offset="0.7576" style="stop-color:#211C51"/>
		<stop  offset="1" style="stop-color:#171043"/>
	</radialGradient>
	<path fill="url(#SVGID_6_)" d="M64.72,51.182l-3.197,7.834c-0.157,0.404-0.54,0.661-0.978,0.661c-0.024,0-0.092-0.007-0.104-0.007
		c-0.49-0.053-0.873-0.416-0.952-0.885l-2.721-16.738l-2.511,24.156c-0.053,0.521-0.476,0.938-1.003,0.957c-0.015,0-0.04,0-0.04,0
		c-0.515,0-0.965-0.363-1.057-0.865l-3.634-18.891l-2.101,5.271c-0.159,0.408-0.555,0.666-0.989,0.666h-14.64
		C32.248,65.787,42.817,75.45,55.658,75.45c13.567,0,24.597-10.793,25.02-24.269H64.72z"/>
</g>
</svg>
